<mxfile host="app.diagrams.net" modified="2021-10-08T07:14:03.239Z" agent="5.0 (Macintosh; Intel Mac OS X 10_15_7) AppleWebKit/537.36 (KHTML, like Gecko) Chrome/93.0.4577.82 Safari/537.36" etag="t9Tgz173a7CWtKALS-Nx" version="15.2.9" type="github">
  <diagram id="JZD_DajndVED-Qe1OCt6" name="第 1 页">
    <mxGraphModel dx="1186" dy="764" grid="1" gridSize="10" guides="1" tooltips="1" connect="1" arrows="1" fold="1" page="1" pageScale="1" pageWidth="827" pageHeight="1169" math="0" shadow="0">
      <root>
        <mxCell id="0" />
        <mxCell id="1" parent="0" />
        <mxCell id="UUgmTdBtR0KIAPF4Jde4-99" value="技术平台" style="rounded=0;whiteSpace=wrap;html=1;align=center;verticalAlign=top;direction=south;strokeColor=#B5739D;fontColor=#B5739D;fontStyle=1" vertex="1" parent="1">
          <mxGeometry x="820" y="610" width="253" height="190" as="geometry" />
        </mxCell>
        <mxCell id="UUgmTdBtR0KIAPF4Jde4-1" value="" style="rounded=0;whiteSpace=wrap;html=1;align=left;verticalAlign=top;fillColor=#1ba1e2;strokeColor=#006EAF;fontColor=#ffffff;" vertex="1" parent="1">
          <mxGeometry x="140" y="40" width="660" height="80" as="geometry" />
        </mxCell>
        <mxCell id="UUgmTdBtR0KIAPF4Jde4-2" value="WEB" style="rounded=0;whiteSpace=wrap;html=1;align=center;verticalAlign=middle;fillColor=#60a917;strokeColor=#2D7600;fontColor=#ffffff;" vertex="1" parent="1">
          <mxGeometry x="160" y="50" width="120" height="60" as="geometry" />
        </mxCell>
        <mxCell id="UUgmTdBtR0KIAPF4Jde4-3" value="企业微信工作台" style="rounded=0;whiteSpace=wrap;html=1;align=center;verticalAlign=middle;fillColor=#60a917;strokeColor=#2D7600;fontColor=#ffffff;" vertex="1" parent="1">
          <mxGeometry x="310" y="50" width="120" height="60" as="geometry" />
        </mxCell>
        <mxCell id="UUgmTdBtR0KIAPF4Jde4-4" value="H5页面" style="rounded=0;whiteSpace=wrap;html=1;align=center;verticalAlign=middle;fillColor=#60a917;strokeColor=#2D7600;fontColor=#ffffff;" vertex="1" parent="1">
          <mxGeometry x="460" y="50" width="120" height="60" as="geometry" />
        </mxCell>
        <mxCell id="UUgmTdBtR0KIAPF4Jde4-5" value="展现层" style="shape=offPageConnector;whiteSpace=wrap;html=1;align=center;verticalAlign=middle;direction=south;fillColor=#1ba1e2;strokeColor=#006EAF;fontColor=#ffffff;" vertex="1" parent="1">
          <mxGeometry x="39" y="40" width="80" height="80" as="geometry" />
        </mxCell>
        <mxCell id="UUgmTdBtR0KIAPF4Jde4-6" value="" style="rounded=0;whiteSpace=wrap;html=1;align=left;verticalAlign=top;fillColor=#7CCFA5;strokeColor=#006EAF;fontColor=#ffffff;" vertex="1" parent="1">
          <mxGeometry x="140" y="140" width="659" height="80" as="geometry" />
        </mxCell>
        <mxCell id="UUgmTdBtR0KIAPF4Jde4-7" value="网关层" style="shape=offPageConnector;whiteSpace=wrap;html=1;align=center;verticalAlign=middle;direction=south;fillColor=#7CCFA5;strokeColor=#006EAF;fontColor=#ffffff;" vertex="1" parent="1">
          <mxGeometry x="39" y="140" width="80" height="80" as="geometry" />
        </mxCell>
        <mxCell id="UUgmTdBtR0KIAPF4Jde4-13" value="&lt;div&gt;Nginx Ingress&lt;/div&gt;&lt;div&gt;（负载均衡 + 动静分离 + 跨域访问）&lt;/div&gt;" style="rounded=0;whiteSpace=wrap;html=1;align=center;verticalAlign=middle;fillColor=#FCCA3F;strokeColor=#36393d;gradientColor=#ffffff;" vertex="1" parent="1">
          <mxGeometry x="380" y="150" width="160" height="60" as="geometry" />
        </mxCell>
        <mxCell id="UUgmTdBtR0KIAPF4Jde4-15" value="" style="rounded=0;whiteSpace=wrap;html=1;align=left;verticalAlign=top;fillColor=#9999FF;strokeColor=#3700CC;fontColor=#ffffff;" vertex="1" parent="1">
          <mxGeometry x="141" y="240" width="659" height="430" as="geometry" />
        </mxCell>
        <mxCell id="UUgmTdBtR0KIAPF4Jde4-16" value="服务层" style="shape=offPageConnector;whiteSpace=wrap;html=1;align=center;verticalAlign=middle;direction=south;fillColor=#9999FF;strokeColor=#3700CC;fontColor=#ffffff;" vertex="1" parent="1">
          <mxGeometry x="40" y="240" width="80" height="430" as="geometry" />
        </mxCell>
        <mxCell id="UUgmTdBtR0KIAPF4Jde4-18" value="运维中心" style="rounded=0;whiteSpace=wrap;html=1;align=center;verticalAlign=top;direction=south;strokeColor=#B5739D;fontColor=#B5739D;fontStyle=1" vertex="1" parent="1">
          <mxGeometry x="820" y="40" width="253" height="240" as="geometry" />
        </mxCell>
        <mxCell id="UUgmTdBtR0KIAPF4Jde4-22" value="..." style="rounded=0;whiteSpace=wrap;html=1;align=center;verticalAlign=middle;fillColor=#60a917;strokeColor=#2D7600;fontColor=#ffffff;" vertex="1" parent="1">
          <mxGeometry x="610" y="50" width="120" height="60" as="geometry" />
        </mxCell>
        <mxCell id="UUgmTdBtR0KIAPF4Jde4-24" value="&lt;div&gt;阿里云 SLB&lt;/div&gt;" style="rounded=0;whiteSpace=wrap;html=1;align=center;verticalAlign=middle;fillColor=#FCCA3F;strokeColor=#36393d;gradientColor=#ffffff;" vertex="1" parent="1">
          <mxGeometry x="160" y="150" width="160" height="60" as="geometry" />
        </mxCell>
        <mxCell id="UUgmTdBtR0KIAPF4Jde4-25" value="&lt;div&gt;GateWay&lt;/div&gt;&lt;div&gt;（安全 + 路由 + 流控）&lt;/div&gt;" style="rounded=0;whiteSpace=wrap;html=1;align=center;verticalAlign=middle;fillColor=#FCCA3F;strokeColor=#000000;dashed=1;gradientColor=#ffffff;strokeWidth=2;" vertex="1" parent="1">
          <mxGeometry x="600" y="150" width="160" height="60" as="geometry" />
        </mxCell>
        <mxCell id="UUgmTdBtR0KIAPF4Jde4-26" value="自动化发布" style="rounded=0;whiteSpace=wrap;html=1;align=center;verticalAlign=top;direction=south;strokeColor=#B5739D;fontColor=#B5739D;fontStyle=1" vertex="1" parent="1">
          <mxGeometry x="833" y="80" width="110" height="190" as="geometry" />
        </mxCell>
        <mxCell id="UUgmTdBtR0KIAPF4Jde4-28" value="安全中心" style="rounded=0;whiteSpace=wrap;html=1;align=center;verticalAlign=top;direction=south;strokeColor=#B5739D;fontColor=#B5739D;fontStyle=1" vertex="1" parent="1">
          <mxGeometry x="953" y="80" width="110" height="190" as="geometry" />
        </mxCell>
        <mxCell id="UUgmTdBtR0KIAPF4Jde4-30" value="Jenkins" style="rounded=0;whiteSpace=wrap;html=1;fillColor=#B5739D;align=center;verticalAlign=top;fontColor=#FFFFFF;" vertex="1" parent="1">
          <mxGeometry x="843" y="110" width="90" height="30" as="geometry" />
        </mxCell>
        <mxCell id="UUgmTdBtR0KIAPF4Jde4-31" value="Apollo" style="rounded=0;whiteSpace=wrap;html=1;fillColor=#B5739D;align=center;verticalAlign=top;fontColor=#FFFFFF;" vertex="1" parent="1">
          <mxGeometry x="843" y="150" width="90" height="30" as="geometry" />
        </mxCell>
        <mxCell id="UUgmTdBtR0KIAPF4Jde4-32" value="..." style="rounded=0;whiteSpace=wrap;html=1;fillColor=#B5739D;align=center;verticalAlign=top;fontColor=#FFFFFF;" vertex="1" parent="1">
          <mxGeometry x="963" y="190" width="90" height="30" as="geometry" />
        </mxCell>
        <mxCell id="UUgmTdBtR0KIAPF4Jde4-33" value="技术架构工作台" style="rounded=0;whiteSpace=wrap;html=1;fillColor=#B5739D;align=center;verticalAlign=top;fontColor=#FFFFFF;" vertex="1" parent="1">
          <mxGeometry x="843" y="190" width="90" height="30" as="geometry" />
        </mxCell>
        <mxCell id="UUgmTdBtR0KIAPF4Jde4-34" value="Sonar" style="rounded=0;whiteSpace=wrap;html=1;fillColor=#B5739D;align=center;verticalAlign=top;fontColor=#FFFFFF;" vertex="1" parent="1">
          <mxGeometry x="963" y="110" width="90" height="30" as="geometry" />
        </mxCell>
        <mxCell id="UUgmTdBtR0KIAPF4Jde4-35" value="&lt;font style=&quot;font-size: 9px&quot;&gt;安全管理平台&lt;/font&gt;" style="rounded=0;whiteSpace=wrap;html=1;fillColor=#B5739D;align=center;verticalAlign=top;fontSize=10;fontColor=#FFFFFF;" vertex="1" parent="1">
          <mxGeometry x="963" y="150" width="90" height="30" as="geometry" />
        </mxCell>
        <mxCell id="UUgmTdBtR0KIAPF4Jde4-36" value="..." style="rounded=0;whiteSpace=wrap;html=1;fillColor=#B5739D;align=center;verticalAlign=top;fontColor=#FFFFFF;" vertex="1" parent="1">
          <mxGeometry x="843" y="230" width="90" height="30" as="geometry" />
        </mxCell>
        <mxCell id="UUgmTdBtR0KIAPF4Jde4-37" value="监控&amp;amp;告警中心" style="rounded=0;whiteSpace=wrap;html=1;align=center;verticalAlign=top;direction=south;strokeColor=#B5739D;fontColor=#B5739D;fontStyle=1" vertex="1" parent="1">
          <mxGeometry x="820" y="290" width="253" height="310" as="geometry" />
        </mxCell>
        <mxCell id="UUgmTdBtR0KIAPF4Jde4-38" value="服务监控" style="rounded=0;whiteSpace=wrap;html=1;fillColor=#B5739D;align=center;verticalAlign=top;fontColor=#FFFFFF;" vertex="1" parent="1">
          <mxGeometry x="833" y="320" width="107" height="30" as="geometry" />
        </mxCell>
        <mxCell id="UUgmTdBtR0KIAPF4Jde4-40" value="应用监控" style="rounded=0;whiteSpace=wrap;html=1;fillColor=#B5739D;align=center;verticalAlign=top;fontColor=#FFFFFF;" vertex="1" parent="1">
          <mxGeometry x="953" y="320" width="107" height="30" as="geometry" />
        </mxCell>
        <mxCell id="UUgmTdBtR0KIAPF4Jde4-41" value="Nginx 监控" style="rounded=0;whiteSpace=wrap;html=1;fillColor=#B5739D;align=center;verticalAlign=top;fontColor=#FFFFFF;" vertex="1" parent="1">
          <mxGeometry x="833" y="360" width="107" height="30" as="geometry" />
        </mxCell>
        <mxCell id="UUgmTdBtR0KIAPF4Jde4-42" value="MySQL 监控" style="rounded=0;whiteSpace=wrap;html=1;fillColor=#B5739D;align=center;verticalAlign=top;fontColor=#FFFFFF;" vertex="1" parent="1">
          <mxGeometry x="953" y="360" width="107" height="30" as="geometry" />
        </mxCell>
        <mxCell id="UUgmTdBtR0KIAPF4Jde4-43" value="Redis 监控" style="rounded=0;whiteSpace=wrap;html=1;fillColor=#B5739D;align=center;verticalAlign=top;fontColor=#FFFFFF;" vertex="1" parent="1">
          <mxGeometry x="833" y="400" width="107" height="30" as="geometry" />
        </mxCell>
        <mxCell id="UUgmTdBtR0KIAPF4Jde4-44" value="MNS 监控" style="rounded=0;whiteSpace=wrap;html=1;fillColor=#B5739D;align=center;verticalAlign=top;fontColor=#FFFFFF;" vertex="1" parent="1">
          <mxGeometry x="953" y="400" width="107" height="30" as="geometry" />
        </mxCell>
        <mxCell id="UUgmTdBtR0KIAPF4Jde4-45" value="健康探测" style="rounded=0;whiteSpace=wrap;html=1;fillColor=#B5739D;align=center;verticalAlign=top;fontColor=#FFFFFF;" vertex="1" parent="1">
          <mxGeometry x="836" y="560" width="107" height="30" as="geometry" />
        </mxCell>
        <mxCell id="UUgmTdBtR0KIAPF4Jde4-46" value="报警通知" style="rounded=0;whiteSpace=wrap;html=1;fillColor=#B5739D;align=center;verticalAlign=top;fontColor=#FFFFFF;" vertex="1" parent="1">
          <mxGeometry x="953" y="520" width="107" height="30" as="geometry" />
        </mxCell>
        <mxCell id="UUgmTdBtR0KIAPF4Jde4-47" value="链路追踪" style="rounded=0;whiteSpace=wrap;html=1;fillColor=#B5739D;align=center;verticalAlign=top;fontColor=#FFFFFF;" vertex="1" parent="1">
          <mxGeometry x="834.5" y="520" width="107" height="30" as="geometry" />
        </mxCell>
        <mxCell id="UUgmTdBtR0KIAPF4Jde4-49" value="Sentry" style="rounded=0;whiteSpace=wrap;html=1;fillColor=#B5739D;align=center;verticalAlign=top;fontColor=#FFFFFF;" vertex="1" parent="1">
          <mxGeometry x="833" y="440" width="107" height="30" as="geometry" />
        </mxCell>
        <mxCell id="UUgmTdBtR0KIAPF4Jde4-50" value="Prometheus" style="rounded=0;whiteSpace=wrap;html=1;fillColor=#B5739D;align=center;verticalAlign=top;fontColor=#FFFFFF;" vertex="1" parent="1">
          <mxGeometry x="953" y="440" width="107" height="30" as="geometry" />
        </mxCell>
        <mxCell id="UUgmTdBtR0KIAPF4Jde4-51" value="Grafana" style="rounded=0;whiteSpace=wrap;html=1;fillColor=#B5739D;align=center;verticalAlign=top;fontColor=#FFFFFF;" vertex="1" parent="1">
          <mxGeometry x="834.5" y="480" width="107" height="30" as="geometry" />
        </mxCell>
        <mxCell id="UUgmTdBtR0KIAPF4Jde4-52" value="阿里云 Dashboard" style="rounded=0;whiteSpace=wrap;html=1;fillColor=#B5739D;align=center;verticalAlign=top;fontColor=#FFFFFF;" vertex="1" parent="1">
          <mxGeometry x="953" y="480" width="107" height="30" as="geometry" />
        </mxCell>
        <mxCell id="UUgmTdBtR0KIAPF4Jde4-53" value="..." style="rounded=0;whiteSpace=wrap;html=1;fillColor=#B5739D;align=center;verticalAlign=top;fontColor=#FFFFFF;" vertex="1" parent="1">
          <mxGeometry x="953" y="560" width="107" height="30" as="geometry" />
        </mxCell>
        <mxCell id="UUgmTdBtR0KIAPF4Jde4-54" value="SVC Pod Cluster" style="rounded=0;whiteSpace=wrap;html=1;dashed=1;fontSize=10;fontColor=#000000;strokeColor=#FFFFFF;fillColor=#FFF4C3;align=center;verticalAlign=top;" vertex="1" parent="1">
          <mxGeometry x="160" y="372.5" width="620" height="107.5" as="geometry" />
        </mxCell>
        <mxCell id="UUgmTdBtR0KIAPF4Jde4-60" value="分布式调度" style="rounded=0;whiteSpace=wrap;html=1;dashed=1;fontSize=10;fontColor=#000000;strokeColor=#FFFFFF;fillColor=#FFF4C3;align=center;verticalAlign=top;" vertex="1" parent="1">
          <mxGeometry x="550" y="495" width="230" height="160" as="geometry" />
        </mxCell>
        <mxCell id="UUgmTdBtR0KIAPF4Jde4-61" value="实时任务 Job" style="rounded=0;whiteSpace=wrap;html=1;fontSize=10;strokeColor=#2D7600;fillColor=#6EC21A;align=center;verticalAlign=middle;fontColor=#ffffff;" vertex="1" parent="1">
          <mxGeometry x="570" y="525" width="90" height="50" as="geometry" />
        </mxCell>
        <mxCell id="UUgmTdBtR0KIAPF4Jde4-62" value="定时任务 Job" style="rounded=0;whiteSpace=wrap;html=1;fontSize=10;strokeColor=#2D7600;fillColor=#6EC21A;align=center;verticalAlign=middle;fontColor=#ffffff;" vertex="1" parent="1">
          <mxGeometry x="670" y="525" width="90" height="50" as="geometry" />
        </mxCell>
        <mxCell id="UUgmTdBtR0KIAPF4Jde4-63" value="基础平台" style="rounded=0;whiteSpace=wrap;html=1;dashed=1;fontSize=10;fontColor=#000000;strokeColor=#FFFFFF;fillColor=#FFF4C3;align=center;verticalAlign=top;" vertex="1" parent="1">
          <mxGeometry x="160" y="495" width="380" height="160" as="geometry" />
        </mxCell>
        <mxCell id="UUgmTdBtR0KIAPF4Jde4-64" value="UPM" style="rounded=0;whiteSpace=wrap;html=1;fontSize=10;strokeColor=#2D7600;fillColor=#6EC21A;align=center;verticalAlign=middle;fontColor=#ffffff;" vertex="1" parent="1">
          <mxGeometry x="170" y="525" width="90" height="50" as="geometry" />
        </mxCell>
        <mxCell id="UUgmTdBtR0KIAPF4Jde4-65" value="SMS" style="rounded=0;whiteSpace=wrap;html=1;fontSize=10;strokeColor=#2D7600;fillColor=#6EC21A;align=center;verticalAlign=middle;fontColor=#ffffff;" vertex="1" parent="1">
          <mxGeometry x="280" y="525" width="90" height="50" as="geometry" />
        </mxCell>
        <mxCell id="UUgmTdBtR0KIAPF4Jde4-66" value="EMAIL" style="rounded=0;whiteSpace=wrap;html=1;fontSize=10;strokeColor=#2D7600;fillColor=#6EC21A;align=center;verticalAlign=middle;fontColor=#ffffff;" vertex="1" parent="1">
          <mxGeometry x="390" y="525" width="90" height="50" as="geometry" />
        </mxCell>
        <mxCell id="UUgmTdBtR0KIAPF4Jde4-67" value="OSS" style="rounded=0;whiteSpace=wrap;html=1;fontSize=10;strokeColor=#2D7600;fillColor=#6EC21A;align=center;verticalAlign=middle;fontColor=#ffffff;" vertex="1" parent="1">
          <mxGeometry x="170" y="595" width="90" height="50" as="geometry" />
        </mxCell>
        <mxCell id="UUgmTdBtR0KIAPF4Jde4-73" value="MNS" style="rounded=0;whiteSpace=wrap;html=1;fillColor=#B5739D;align=center;verticalAlign=top;fontColor=#FFFFFF;" vertex="1" parent="1">
          <mxGeometry x="831" y="640.8" width="107" height="30" as="geometry" />
        </mxCell>
        <mxCell id="UUgmTdBtR0KIAPF4Jde4-74" value="XXL-JOB" style="rounded=0;whiteSpace=wrap;html=1;fillColor=#B5739D;align=center;verticalAlign=top;fontColor=#FFFFFF;" vertex="1" parent="1">
          <mxGeometry x="949.5" y="640.8" width="107" height="30" as="geometry" />
        </mxCell>
        <mxCell id="UUgmTdBtR0KIAPF4Jde4-75" value="FastDFS" style="rounded=0;whiteSpace=wrap;html=1;fillColor=#B5739D;align=center;verticalAlign=top;fontColor=#FFFFFF;" vertex="1" parent="1">
          <mxGeometry x="831.25" y="720" width="107" height="30" as="geometry" />
        </mxCell>
        <mxCell id="UUgmTdBtR0KIAPF4Jde4-78" value="" style="rounded=0;whiteSpace=wrap;html=1;align=left;verticalAlign=top;fillColor=#FFB570;" vertex="1" parent="1">
          <mxGeometry x="141" y="690" width="659" height="110" as="geometry" />
        </mxCell>
        <mxCell id="UUgmTdBtR0KIAPF4Jde4-79" value="存储层" style="shape=offPageConnector;whiteSpace=wrap;html=1;align=center;verticalAlign=middle;direction=south;fillColor=#FFB570;" vertex="1" parent="1">
          <mxGeometry x="40" y="690" width="80" height="110" as="geometry" />
        </mxCell>
        <mxCell id="UUgmTdBtR0KIAPF4Jde4-82" value="分布式缓存" style="rounded=0;whiteSpace=wrap;html=1;dashed=1;fontSize=10;fontColor=#000000;strokeColor=#FFFFFF;fillColor=#FFF4C3;align=center;verticalAlign=top;" vertex="1" parent="1">
          <mxGeometry x="160" y="700" width="120" height="90" as="geometry" />
        </mxCell>
        <mxCell id="UUgmTdBtR0KIAPF4Jde4-84" value="Redis" style="aspect=fixed;perimeter=ellipsePerimeter;html=1;align=center;shadow=0;dashed=0;spacingTop=3;image;image=img/lib/active_directory/database.svg;fontSize=10;fontColor=#000000;strokeColor=#FFFFFF;fillColor=#FFF4C3;verticalAlign=middle;labelPosition=center;verticalLabelPosition=middle;labelBackgroundColor=default;labelBorderColor=#FFFFFF;imageBackground=none;sketch=0;imageAspect=1;allowArrows=0;cloneable=1;noLabel=0;portConstraintRotation=0;expand=1;editable=0;" vertex="1" parent="1">
          <mxGeometry x="175" y="723.4" width="90" height="66.6" as="geometry" />
        </mxCell>
        <mxCell id="UUgmTdBtR0KIAPF4Jde4-85" value="关系型数据库" style="rounded=0;whiteSpace=wrap;html=1;dashed=1;fontSize=10;fontColor=#000000;strokeColor=#FFFFFF;fillColor=#FFF4C3;align=center;verticalAlign=top;" vertex="1" parent="1">
          <mxGeometry x="294" y="700" width="120" height="90" as="geometry" />
        </mxCell>
        <mxCell id="UUgmTdBtR0KIAPF4Jde4-86" value="MySQL" style="aspect=fixed;perimeter=ellipsePerimeter;html=1;align=center;shadow=0;dashed=0;spacingTop=3;image;image=img/lib/active_directory/database.svg;fontSize=10;fontColor=#000000;strokeColor=#FFFFFF;fillColor=#FFF4C3;verticalAlign=middle;labelPosition=center;verticalLabelPosition=middle;labelBackgroundColor=default;labelBorderColor=#FFFFFF;imageBackground=none;imageAspect=1;allowArrows=0;cloneable=1;noLabel=0;portConstraintRotation=0;expand=1;editable=0;" vertex="1" parent="1">
          <mxGeometry x="309" y="723.4" width="90" height="66.6" as="geometry" />
        </mxCell>
        <mxCell id="UUgmTdBtR0KIAPF4Jde4-87" value="分布式存储" style="rounded=0;whiteSpace=wrap;html=1;dashed=1;fontSize=10;fontColor=#000000;strokeColor=#FFFFFF;fillColor=#FFF4C3;align=center;verticalAlign=top;" vertex="1" parent="1">
          <mxGeometry x="430" y="700" width="350" height="90" as="geometry" />
        </mxCell>
        <mxCell id="UUgmTdBtR0KIAPF4Jde4-88" value="MongoDB" style="aspect=fixed;perimeter=ellipsePerimeter;html=1;align=center;shadow=0;dashed=0;spacingTop=3;image;image=img/lib/active_directory/database.svg;fontSize=10;fontColor=#000000;strokeColor=#FFFFFF;fillColor=#FFF4C3;verticalAlign=middle;labelPosition=center;verticalLabelPosition=middle;labelBackgroundColor=default;labelBorderColor=#FFFFFF;imageBackground=none;imageAspect=1;allowArrows=0;cloneable=1;noLabel=0;portConstraintRotation=0;expand=1;editable=0;" vertex="1" parent="1">
          <mxGeometry x="445" y="723.4" width="90" height="66.6" as="geometry" />
        </mxCell>
        <mxCell id="UUgmTdBtR0KIAPF4Jde4-89" value="FastDFS" style="aspect=fixed;perimeter=ellipsePerimeter;html=1;align=center;shadow=0;dashed=0;spacingTop=3;image;image=img/lib/active_directory/database.svg;fontSize=10;fontColor=#000000;strokeColor=#FFFFFF;fillColor=#FFF4C3;verticalAlign=middle;labelPosition=center;verticalLabelPosition=middle;labelBackgroundColor=default;labelBorderColor=#FFFFFF;imageBackground=none;imageAspect=1;allowArrows=0;cloneable=1;noLabel=0;portConstraintRotation=0;expand=1;editable=0;" vertex="1" parent="1">
          <mxGeometry x="560" y="723.4" width="90" height="66.6" as="geometry" />
        </mxCell>
        <mxCell id="UUgmTdBtR0KIAPF4Jde4-91" value="HBase" style="aspect=fixed;perimeter=ellipsePerimeter;html=1;align=center;shadow=0;dashed=0;spacingTop=3;image;image=img/lib/active_directory/database.svg;fontSize=10;fontColor=#000000;strokeColor=#FFFFFF;fillColor=#FFF4C3;verticalAlign=middle;labelPosition=center;verticalLabelPosition=middle;labelBackgroundColor=default;labelBorderColor=#FFFFFF;imageBackground=none;imageAspect=1;allowArrows=0;cloneable=1;noLabel=0;portConstraintRotation=0;expand=1;editable=0;" vertex="1" parent="1">
          <mxGeometry x="675" y="723.4" width="90" height="66.6" as="geometry" />
        </mxCell>
        <mxCell id="UUgmTdBtR0KIAPF4Jde4-95" value="Apollo" style="rounded=0;whiteSpace=wrap;html=1;fillColor=#B5739D;align=center;verticalAlign=top;fontColor=#FFFFFF;" vertex="1" parent="1">
          <mxGeometry x="831.25" y="680.8" width="107" height="30" as="geometry" />
        </mxCell>
        <mxCell id="UUgmTdBtR0KIAPF4Jde4-97" value="..." style="rounded=0;whiteSpace=wrap;html=1;fillColor=#B5739D;align=center;verticalAlign=top;fontColor=#FFFFFF;" vertex="1" parent="1">
          <mxGeometry x="949.5" y="720" width="107" height="30" as="geometry" />
        </mxCell>
        <mxCell id="UUgmTdBtR0KIAPF4Jde4-98" value="Zipkin" style="rounded=0;whiteSpace=wrap;html=1;fillColor=#B5739D;align=center;verticalAlign=top;fontColor=#FFFFFF;" vertex="1" parent="1">
          <mxGeometry x="949.5" y="680.8" width="107" height="30" as="geometry" />
        </mxCell>
        <mxCell id="UUgmTdBtR0KIAPF4Jde4-103" value="OCR" style="rounded=0;whiteSpace=wrap;html=1;fontSize=10;strokeColor=#2D7600;fillColor=#6EC21A;align=center;verticalAlign=middle;fontColor=#ffffff;" vertex="1" parent="1">
          <mxGeometry x="280" y="595" width="90" height="50" as="geometry" />
        </mxCell>
        <mxCell id="UUgmTdBtR0KIAPF4Jde4-104" value="..." style="rounded=0;whiteSpace=wrap;html=1;fontSize=10;strokeColor=#2D7600;fillColor=#6EC21A;align=center;verticalAlign=middle;fontColor=#ffffff;" vertex="1" parent="1">
          <mxGeometry x="390" y="595" width="90" height="50" as="geometry" />
        </mxCell>
        <mxCell id="UUgmTdBtR0KIAPF4Jde4-110" value="AUTH" style="sketch=0;html=1;dashed=0;whitespace=wrap;fillColor=#2875E2;strokeColor=#ffffff;points=[[0.005,0.63,0],[0.1,0.2,0],[0.9,0.2,0],[0.5,0,0],[0.995,0.63,0],[0.72,0.99,0],[0.5,1,0],[0.28,0.99,0]];shape=mxgraph.kubernetes.icon;prIcon=pod;shadow=0;labelBackgroundColor=default;fontSize=10;" vertex="1" parent="1">
          <mxGeometry x="175" y="392.5" width="70" height="78" as="geometry" />
        </mxCell>
        <mxCell id="UUgmTdBtR0KIAPF4Jde4-113" value="SALARY" style="sketch=0;html=1;dashed=0;whitespace=wrap;fillColor=#2875E2;strokeColor=#ffffff;points=[[0.005,0.63,0],[0.1,0.2,0],[0.9,0.2,0],[0.5,0,0],[0.995,0.63,0],[0.72,0.99,0],[0.5,1,0],[0.28,0.99,0]];shape=mxgraph.kubernetes.icon;prIcon=pod;shadow=0;labelBackgroundColor=default;fontSize=10;" vertex="1" parent="1">
          <mxGeometry x="260" y="394.5" width="70" height="78" as="geometry" />
        </mxCell>
        <mxCell id="UUgmTdBtR0KIAPF4Jde4-114" value="HRMS" style="sketch=0;html=1;dashed=0;whitespace=wrap;fillColor=#2875E2;strokeColor=#ffffff;points=[[0.005,0.63,0],[0.1,0.2,0],[0.9,0.2,0],[0.5,0,0],[0.995,0.63,0],[0.72,0.99,0],[0.5,1,0],[0.28,0.99,0]];shape=mxgraph.kubernetes.icon;prIcon=pod;shadow=0;labelBackgroundColor=default;fontSize=10;" vertex="1" parent="1">
          <mxGeometry x="344" y="394.5" width="70" height="78" as="geometry" />
        </mxCell>
        <mxCell id="UUgmTdBtR0KIAPF4Jde4-115" value="CALC" style="sketch=0;html=1;dashed=0;whitespace=wrap;fillColor=#2875E2;strokeColor=#ffffff;points=[[0.005,0.63,0],[0.1,0.2,0],[0.9,0.2,0],[0.5,0,0],[0.995,0.63,0],[0.72,0.99,0],[0.5,1,0],[0.28,0.99,0]];shape=mxgraph.kubernetes.icon;prIcon=pod;shadow=0;labelBackgroundColor=default;fontSize=10;" vertex="1" parent="1">
          <mxGeometry x="430" y="394.5" width="70" height="78" as="geometry" />
        </mxCell>
        <mxCell id="UUgmTdBtR0KIAPF4Jde4-119" value="XXL-JOB 定时任务引擎" style="rounded=0;whiteSpace=wrap;html=1;fontSize=10;strokeColor=#2D7600;fillColor=#6EC21A;align=center;verticalAlign=middle;fontColor=#ffffff;" vertex="1" parent="1">
          <mxGeometry x="570" y="595" width="190" height="50" as="geometry" />
        </mxCell>
        <mxCell id="UUgmTdBtR0KIAPF4Jde4-121" value="......" style="sketch=0;html=1;dashed=0;whitespace=wrap;fillColor=#2875E2;strokeColor=#ffffff;points=[[0.005,0.63,0],[0.1,0.2,0],[0.9,0.2,0],[0.5,0,0],[0.995,0.63,0],[0.72,0.99,0],[0.5,1,0],[0.28,0.99,0]];shape=mxgraph.kubernetes.icon;prIcon=pod;shadow=0;labelBackgroundColor=default;fontSize=10;" vertex="1" parent="1">
          <mxGeometry x="520" y="396" width="70" height="78" as="geometry" />
        </mxCell>
        <mxCell id="UUgmTdBtR0KIAPF4Jde4-122" value="BFF SVC" style="rounded=0;whiteSpace=wrap;html=1;dashed=1;fontSize=10;fontColor=#000000;strokeColor=#000000;fillColor=#66B2FF;align=center;verticalAlign=top;strokeWidth=2;" vertex="1" parent="1">
          <mxGeometry x="160" y="252.5" width="380" height="37.5" as="geometry" />
        </mxCell>
        <mxCell id="UUgmTdBtR0KIAPF4Jde4-123" value="Facade SVC" style="rounded=0;whiteSpace=wrap;html=1;dashed=1;fontSize=10;fontColor=#000000;strokeColor=#FFFFFF;fillColor=#FFF4C3;align=center;verticalAlign=top;" vertex="1" parent="1">
          <mxGeometry x="550" y="252.5" width="230" height="107.5" as="geometry" />
        </mxCell>
        <mxCell id="UUgmTdBtR0KIAPF4Jde4-125" value="Facade SVC" style="rounded=0;whiteSpace=wrap;html=1;dashed=1;fontSize=10;fontColor=#000000;strokeColor=#000000;fillColor=#E5CCFF;align=center;verticalAlign=top;strokeWidth=2;" vertex="1" parent="1">
          <mxGeometry x="550" y="252.5" width="230" height="107.5" as="geometry" />
        </mxCell>
        <mxCell id="UUgmTdBtR0KIAPF4Jde4-126" value="Facade SVC" style="rounded=0;whiteSpace=wrap;html=1;dashed=1;fontSize=10;fontColor=#000000;strokeColor=#000000;fillColor=#E5CCFF;align=center;verticalAlign=top;strokeWidth=2;" vertex="1" parent="1">
          <mxGeometry x="160" y="300" width="380" height="60" as="geometry" />
        </mxCell>
        <mxCell id="UUgmTdBtR0KIAPF4Jde4-130" value="暂无" style="text;html=1;strokeColor=none;fillColor=none;align=center;verticalAlign=middle;whiteSpace=wrap;rounded=0;shadow=0;dashed=0;labelBackgroundColor=default;fontSize=10;" vertex="1" parent="1">
          <mxGeometry x="645" y="300" width="40" height="20" as="geometry" />
        </mxCell>
        <mxCell id="UUgmTdBtR0KIAPF4Jde4-131" value="暂无" style="text;html=1;strokeColor=none;fillColor=none;align=center;verticalAlign=middle;whiteSpace=wrap;rounded=0;shadow=0;dashed=0;labelBackgroundColor=default;fontSize=10;" vertex="1" parent="1">
          <mxGeometry x="330" y="330" width="40" height="20" as="geometry" />
        </mxCell>
        <mxCell id="UUgmTdBtR0KIAPF4Jde4-132" value="暂无" style="text;html=1;strokeColor=none;fillColor=none;align=center;verticalAlign=middle;whiteSpace=wrap;rounded=0;shadow=0;dashed=0;labelBackgroundColor=default;fontSize=10;" vertex="1" parent="1">
          <mxGeometry x="399" y="261.25" width="40" height="20" as="geometry" />
        </mxCell>
        <mxCell id="UUgmTdBtR0KIAPF4Jde4-133" value="暂无" style="text;html=1;strokeColor=none;fillColor=none;align=center;verticalAlign=middle;whiteSpace=wrap;rounded=0;shadow=0;dashed=0;labelBackgroundColor=default;fontSize=10;" vertex="1" parent="1">
          <mxGeometry x="605" y="160" width="40" height="20" as="geometry" />
        </mxCell>
      </root>
    </mxGraphModel>
  </diagram>
</mxfile>
